<?xml version="1.0" encoding="UTF-8"?>
<svg width="700pt" height="700pt" version="1.1" viewBox="0 0 700 700" xmlns="http://www.w3.org/2000/svg" xmlns:xlink="http://www.w3.org/1999/xlink">
 <g>
  <path d="m122.85 481.34c0 18.898 24.23 31.73 76.262 40.375 49.953 7.3438 100.4 10.781 150.89 10.281 68.301 0 227.15-4.9375 227.15-50.656 0-107.7-56.688-198.27-142.86-231.45l0.003906-0.003906c25.848-22.938 41.234-55.418 42.605-89.949s-11.387-68.133-35.332-93.051c-23.949-24.918-57.016-39-91.574-39s-67.625 14.082-91.574 39c-23.945 24.918-36.703 58.516-35.332 93.047 1.3711 34.535 16.758 67.016 42.605 89.953-86.16 33.18-142.85 123.75-142.85 231.45zm120.3-326.34c0-28.34 11.258-55.516 31.293-75.555 20.039-20.039 47.215-31.297 75.555-31.297s55.516 11.258 75.555 31.297c20.035 20.039 31.293 47.215 31.293 75.555 0 28.336-11.258 55.516-31.293 75.551-20.039 20.039-47.215 31.297-75.555 31.297-28.328-0.035157-55.488-11.301-75.516-31.332-20.031-20.031-31.301-47.188-31.332-75.516zm42.453 109.41c19.504 11.52 41.742 17.598 64.395 17.598s44.891-6.0781 64.395-17.598c85.414 25.773 142.6 112.47 142.6 216.93-1.5938 10.301-65.797 30.504-207 30.504s-205.4-20.203-207-30.5c0-104.46 57.184-191.16 142.6-216.93z"/>
  <use x="70" y="644" xlink:href="#s"/>
  <use x="90.550781" y="644" xlink:href="#b"/>
  <use x="104.359375" y="644" xlink:href="#a"/>
  <use x="123.347656" y="644" xlink:href="#j"/>
  <use x="142.242188" y="644" xlink:href="#d"/>
  <use x="155.628906" y="644" xlink:href="#a"/>
  <use x="174.617188" y="644" xlink:href="#i"/>
  <use x="204.410156" y="644" xlink:href="#e"/>
  <use x="224.453125" y="644" xlink:href="#h"/>
  <use x="252.453125" y="644" xlink:href="#g"/>
  <use x="275.882812" y="644" xlink:href="#b"/>
  <use x="289.695312" y="644" xlink:href="#e"/>
  <use x="309.734375" y="644" xlink:href="#c"/>
  <use x="328.972656" y="644" xlink:href="#f"/>
  <use x="70" y="672" xlink:href="#r"/>
  <use x="82.183594" y="672" xlink:href="#b"/>
  <use x="95.992188" y="672" xlink:href="#c"/>
  <use x="115.226562" y="672" xlink:href="#q"/>
  <use x="154.152344" y="672" xlink:href="#d"/>
  <use x="167.535156" y="672" xlink:href="#p"/>
  <use x="187.46875" y="672" xlink:href="#a"/>
  <use x="216.207031" y="672" xlink:href="#o"/>
  <use x="239.640625" y="672" xlink:href="#c"/>
  <use x="258.878906" y="672" xlink:href="#n"/>
  <use x="278.8125" y="672" xlink:href="#f"/>
  <use x="308.492188" y="672" xlink:href="#m"/>
  <use x="329.015625" y="672" xlink:href="#b"/>
  <use x="342.820312" y="672" xlink:href="#c"/>
  <use x="362.058594" y="672" xlink:href="#l"/>
  <use x="371.65625" y="672" xlink:href="#a"/>
  <use x="390.648438" y="672" xlink:href="#k"/>
  <use x="407.242188" y="672" xlink:href="#d"/>
 </g>
</svg>
