<svg id="SvgjsSvg1001" width="288" height="288" xmlns="http://www.w3.org/2000/svg" version="1.1" xmlns:xlink="http://www.w3.org/1999/xlink" xmlns:svgjs="http://svgjs.com/svgjs"><defs id="SvgjsDefs1002"></defs><g id="SvgjsG1008"><svg xmlns="http://www.w3.org/2000/svg" xmlns:xlink="http://www.w3.org/1999/xlink" width="288" height="288" viewBox="0 0 700 700"><path d="m347.2 419.87c-3.4336 0-6.6758-1.5742-8.8008-4.2734l-165.2-209.87c-3.8281-4.8633-2.9883-11.902 1.875-15.73 4.8594-3.8242 11.902-2.9844 15.727 1.8789l156.4 198.69 156.4-198.69c3.8242-4.8633 10.867-5.7031 15.73-1.8789 4.8594 3.8281 5.6992 10.867 1.875 15.73l-165.2 209.87c-2.125 2.6992-5.3711 4.2734-8.8047 4.2734z" fill="#00b5d3" class="color000 svgShape"></path><use x="70" y="644" xlink:href="#v"></use><use x="90.551" y="644" xlink:href="#b"></use><use x="104.359" y="644" xlink:href="#a"></use><use x="123.348" y="644" xlink:href="#k"></use><use x="142.242" y="644" xlink:href="#d"></use><use x="155.629" y="644" xlink:href="#a"></use><use x="174.617" y="644" xlink:href="#j"></use><use x="204.41" y="644" xlink:href="#i"></use><use x="224.453" y="644" xlink:href="#h"></use><use x="252.453" y="644" xlink:href="#g"></use><use x="271.551" y="644" xlink:href="#c"></use><use x="290.789" y="644" xlink:href="#f"></use><use x="329.711" y="644" xlink:href="#u"></use><use x="348.836" y="644" xlink:href="#b"></use><use x="362.648" y="644" xlink:href="#t"></use><use x="372.242" y="644" xlink:href="#e"></use><use x="388.844" y="644" xlink:href="#s"></use><use x="407.461" y="644" xlink:href="#a"></use><use x="426.453" y="644" xlink:href="#b"></use><use x="70" y="672" xlink:href="#r"></use><use x="82.184" y="672" xlink:href="#b"></use><use x="95.992" y="672" xlink:href="#c"></use><use x="115.227" y="672" xlink:href="#f"></use><use x="154.152" y="672" xlink:href="#d"></use><use x="167.535" y="672" xlink:href="#q"></use><use x="187.469" y="672" xlink:href="#a"></use><use x="216.207" y="672" xlink:href="#p"></use><use x="239.641" y="672" xlink:href="#c"></use><use x="258.879" y="672" xlink:href="#o"></use><use x="278.813" y="672" xlink:href="#n"></use><use x="308.492" y="672" xlink:href="#m"></use><use x="329.016" y="672" xlink:href="#b"></use><use x="342.82" y="672" xlink:href="#c"></use><use x="362.059" y="672" xlink:href="#l"></use><use x="371.656" y="672" xlink:href="#a"></use><use x="390.648" y="672" xlink:href="#e"></use><use x="407.242" y="672" xlink:href="#d"></use></svg></g></svg>