<svg id="SvgjsSvg1141" width="288" height="288" xmlns="http://www.w3.org/2000/svg" version="1.1" xmlns:xlink="http://www.w3.org/1999/xlink" xmlns:svgjs="http://svgjs.com/svgjs"><defs id="SvgjsDefs1142"></defs><g id="SvgjsG1143"><svg xmlns="http://www.w3.org/2000/svg" xmlns:xlink="http://www.w3.org/1999/xlink" width="288" height="288" viewBox="0 0 700 700"><path d="m325.27 386.4c6.5625 6.5547 15.461 10.238 24.734 10.238s18.172-3.6836 24.734-10.238l169.17-169.17-0.003906 0.003906c8.3242-8.9336 11.391-21.559 8.0938-33.316-3.3008-11.758-12.488-20.945-24.242-24.242-11.758-3.3008-24.383-0.23438-33.316 8.0898l-144.43 144.38-144.43-144.38c-8.9336-8.3242-21.559-11.391-33.316-8.0898-11.754 3.2969-20.941 12.484-24.242 24.242-3.2969 11.758-0.23047 24.383 8.0938 33.316z" fill="#00b5d3" class="color000 svgShape"></path><use x="70" y="647.5" xlink:href="#u"></use><use x="91.406" y="647.5" xlink:href="#d"></use><use x="105.789" y="647.5" xlink:href="#c"></use><use x="125.57" y="647.5" xlink:href="#g"></use><use x="145.254" y="647.5" xlink:href="#b"></use><use x="159.195" y="647.5" xlink:href="#c"></use><use x="178.977" y="647.5" xlink:href="#k"></use><use x="210.008" y="647.5" xlink:href="#j"></use><use x="230.887" y="647.5" xlink:href="#f"></use><use x="260.055" y="647.5" xlink:href="#a"></use><use x="280.09" y="647.5" xlink:href="#i"></use><use x="290.09" y="647.5" xlink:href="#h"></use><use x="307.379" y="647.5" xlink:href="#g"></use><use x="327.059" y="647.5" xlink:href="#f"></use><use x="356.227" y="647.5" xlink:href="#t"></use><use x="375.625" y="647.5" xlink:href="#e"></use><use x="396.387" y="647.5" xlink:href="#d"></use><use x="410.773" y="647.5" xlink:href="#b"></use><use x="424.715" y="647.5" xlink:href="#e"></use><use x="445.477" y="647.5" xlink:href="#i"></use><use x="455.477" y="647.5" xlink:href="#e"></use><use x="476.238" y="647.5" xlink:href="#s"></use><use x="70" y="676.668" xlink:href="#r"></use><use x="82.688" y="676.668" xlink:href="#d"></use><use x="97.074" y="676.668" xlink:href="#a"></use><use x="117.109" y="676.668" xlink:href="#q"></use><use x="157.656" y="676.668" xlink:href="#b"></use><use x="171.598" y="676.668" xlink:href="#p"></use><use x="192.363" y="676.668" xlink:href="#c"></use><use x="222.301" y="676.668" xlink:href="#o"></use><use x="246.711" y="676.668" xlink:href="#a"></use><use x="266.746" y="676.668" xlink:href="#e"></use><use x="287.512" y="676.668" xlink:href="#n"></use><use x="318.43" y="676.668" xlink:href="#m"></use><use x="339.805" y="676.668" xlink:href="#d"></use><use x="354.191" y="676.668" xlink:href="#a"></use><use x="374.227" y="676.668" xlink:href="#l"></use><use x="384.227" y="676.668" xlink:href="#c"></use><use x="404.008" y="676.668" xlink:href="#h"></use><use x="421.297" y="676.668" xlink:href="#b"></use></svg></g></svg>