<?xml version="1.0" encoding="UTF-8"?>
<svg width="700pt" height="700pt" version="1.1" viewBox="0 0 700 700" xmlns="http://www.w3.org/2000/svg" xmlns:xlink="http://www.w3.org/1999/xlink">
 <g>
  <path d="m199.59 58.297c-0.98828-5.3906-5.7266-9.2734-11.203-9.1836h-75.598c-6.1875 0-11.199 5.0117-11.199 11.199 0 6.1836 5.0117 11.199 11.199 11.199h66.414l15.062 82.992h0.003906c-0.019531 0.39062-0.019531 0.78516 0 1.1758l32.926 180.32c2.3477 12.902 9.1484 24.574 19.219 32.977 10.07 8.3984 22.77 13 35.887 13h213.86c12.406 0 24.461-4.1211 34.27-11.711 9.8125-7.5898 16.824-18.227 19.938-30.234l47.656-184.18c0.86719-3.3555 0.12891-6.9258-1.9961-9.6641-2.125-2.7422-5.3984-4.3398-8.8672-4.3359h-372.4zm373.12 105.95-44.016 170.19c-1.8633 7.2109-6.0664 13.602-11.957 18.164-5.8906 4.5586-13.129 7.0352-20.578 7.0352h-213.86c-7.8789 0.007813-15.508-2.7539-21.559-7.8008-6.0508-5.043-10.133-12.055-11.539-19.809l-30.465-168z"/>
  <path d="m338.35 461.44c0-13.117-5.2109-25.691-14.484-34.965-9.2695-9.2734-21.848-14.484-34.965-14.484-13.113 0-25.691 5.2109-34.965 14.484-9.2734 9.2734-14.48 21.848-14.48 34.965 0 13.113 5.207 25.691 14.48 34.965s21.852 14.48 34.965 14.48c13.113-0.011719 25.68-5.2266 34.949-14.5 9.2695-9.2695 14.484-21.836 14.5-34.945zm-76.496 0c0-7.1758 2.8516-14.055 7.9219-19.129 5.0742-5.0703 11.953-7.9219 19.125-7.9219 7.1758 0 14.055 2.8516 19.129 7.9219 5.0703 5.0742 7.9219 11.953 7.9219 19.129 0 7.1719-2.8516 14.051-7.9219 19.125-5.0742 5.0703-11.953 7.9219-19.129 7.9219-7.1758 0-14.062-2.8477-19.145-7.918-5.082-5.0703-7.9414-11.953-7.957-19.129z"/>
  <path d="m524.16 461.44c0-13.117-5.2109-25.691-14.484-34.965-9.2734-9.2734-21.848-14.484-34.965-14.484-13.113 0-25.691 5.2109-34.965 14.484-9.2734 9.2734-14.48 21.848-14.48 34.965 0 13.113 5.207 25.691 14.48 34.965 9.2734 9.2734 21.852 14.48 34.965 14.48 13.109-0.011719 25.68-5.2266 34.949-14.5 9.2695-9.2695 14.484-21.836 14.5-34.945zm-76.496 0c0-7.1758 2.8516-14.055 7.9219-19.129 5.0742-5.0703 11.953-7.9219 19.125-7.9219 7.1758 0 14.055 2.8516 19.125 7.9219 5.0742 5.0742 7.9258 11.953 7.9258 19.129 0 7.1719-2.8516 14.051-7.9258 19.125-5.0703 5.0703-11.949 7.9219-19.125 7.9219-7.1758 0-14.062-2.8477-19.145-7.918-5.082-5.0703-7.9453-11.953-7.957-19.129z"/>
  <use x="70" y="644" xlink:href="#s"/>
  <use x="90.550781" y="644" xlink:href="#b"/>
  <use x="104.359375" y="644" xlink:href="#a"/>
  <use x="123.347656" y="644" xlink:href="#j"/>
  <use x="142.242188" y="644" xlink:href="#c"/>
  <use x="155.628906" y="644" xlink:href="#a"/>
  <use x="174.617188" y="644" xlink:href="#f"/>
  <use x="204.410156" y="644" xlink:href="#i"/>
  <use x="224.453125" y="644" xlink:href="#e"/>
  <use x="252.453125" y="644" xlink:href="#h"/>
  <use x="271.550781" y="644" xlink:href="#b"/>
  <use x="285.359375" y="644" xlink:href="#a"/>
  <use x="304.351562" y="644" xlink:href="#g"/>
  <use x="324.28125" y="644" xlink:href="#f"/>
  <use x="344.328125" y="644" xlink:href="#e"/>
  <use x="70" y="672" xlink:href="#r"/>
  <use x="82.183594" y="672" xlink:href="#b"/>
  <use x="95.992188" y="672" xlink:href="#d"/>
  <use x="115.226562" y="672" xlink:href="#q"/>
  <use x="154.152344" y="672" xlink:href="#c"/>
  <use x="167.535156" y="672" xlink:href="#p"/>
  <use x="187.46875" y="672" xlink:href="#a"/>
  <use x="216.207031" y="672" xlink:href="#o"/>
  <use x="239.640625" y="672" xlink:href="#d"/>
  <use x="258.878906" y="672" xlink:href="#n"/>
  <use x="278.8125" y="672" xlink:href="#g"/>
  <use x="308.492188" y="672" xlink:href="#m"/>
  <use x="329.015625" y="672" xlink:href="#b"/>
  <use x="342.820312" y="672" xlink:href="#d"/>
  <use x="362.058594" y="672" xlink:href="#l"/>
  <use x="371.65625" y="672" xlink:href="#a"/>
  <use x="390.648438" y="672" xlink:href="#k"/>
  <use x="407.242188" y="672" xlink:href="#c"/>
 </g>
</svg>
