<svg id="SvgjsSvg1001" width="288" height="288" xmlns="http://www.w3.org/2000/svg" version="1.1" xmlns:xlink="http://www.w3.org/1999/xlink" xmlns:svgjs="http://svgjs.com/svgjs"><defs id="SvgjsDefs1002"></defs><g id="SvgjsG1008"><svg xmlns="http://www.w3.org/2000/svg" xmlns:xlink="http://www.w3.org/1999/xlink" width="288" height="288" viewBox="0 0 700 700"><path d="m571.76 58.238c-4.375-4.3711-11.465-4.3711-15.84 0l-205.92 205.93-205.9-205.93c-4.3789-4.3789-11.477-4.3789-15.859 0-4.3789 4.3828-4.3789 11.48 0 15.859l205.93 205.9-205.93 205.9c-4.3789 4.3789-4.3789 11.477 0 15.859 4.3828 4.3789 11.48 4.3789 15.859 0l205.9-205.93 205.9 205.93c4.3789 4.3789 11.477 4.3789 15.859 0 4.3789-4.3828 4.3789-11.48 0-15.859l-205.93-205.9 205.93-205.9c2.1055-2.1016 3.2891-4.9531 3.2891-7.9297 0-2.9727-1.1836-5.8281-3.2891-7.9297z" fill="#00b5d3" class="color000 svgShape"></path><use x="70" y="576.801" xlink:href="#t"></use><use x="74.109" y="576.801" xlink:href="#c"></use><use x="76.871" y="576.801" xlink:href="#a"></use><use x="80.668" y="576.801" xlink:href="#l"></use><use x="84.449" y="576.801" xlink:href="#d"></use><use x="87.125" y="576.801" xlink:href="#a"></use><use x="90.922" y="576.801" xlink:href="#k"></use><use x="96.883" y="576.801" xlink:href="#j"></use><use x="100.891" y="576.801" xlink:href="#i"></use><use x="106.488" y="576.801" xlink:href="#e"></use><use x="110.758" y="576.801" xlink:href="#c"></use><use x="113.52" y="576.801" xlink:href="#h"></use><use x="117.508" y="576.801" xlink:href="#g"></use><use x="121.492" y="576.801" xlink:href="#b"></use><use x="127.289" y="576.801" xlink:href="#e"></use><use x="131.559" y="576.801" xlink:href="#b"></use><use x="135.406" y="576.801" xlink:href="#f"></use><use x="138.738" y="576.801" xlink:href="#f"></use><use x="142.074" y="576.801" xlink:href="#a"></use><use x="70" y="582.398" xlink:href="#s"></use><use x="72.438" y="582.398" xlink:href="#c"></use><use x="75.199" y="582.398" xlink:href="#b"></use><use x="79.047" y="582.398" xlink:href="#r"></use><use x="86.828" y="582.398" xlink:href="#d"></use><use x="89.508" y="582.398" xlink:href="#q"></use><use x="93.492" y="582.398" xlink:href="#a"></use><use x="99.242" y="582.398" xlink:href="#p"></use><use x="103.93" y="582.398" xlink:href="#b"></use><use x="107.773" y="582.398" xlink:href="#h"></use><use x="111.762" y="582.398" xlink:href="#g"></use><use x="117.699" y="582.398" xlink:href="#o"></use><use x="121.801" y="582.398" xlink:href="#c"></use><use x="124.563" y="582.398" xlink:href="#b"></use><use x="128.41" y="582.398" xlink:href="#n"></use><use x="130.332" y="582.398" xlink:href="#a"></use><use x="134.129" y="582.398" xlink:href="#m"></use><use x="137.449" y="582.398" xlink:href="#d"></use></svg></g></svg>