<svg id="SvgjsSvg1001" width="288" height="288" xmlns="http://www.w3.org/2000/svg" version="1.1" xmlns:xlink="http://www.w3.org/1999/xlink" xmlns:svgjs="http://svgjs.com/svgjs"><defs id="SvgjsDefs1002"></defs><g id="SvgjsG1008"><svg xmlns="http://www.w3.org/2000/svg" xmlns:xlink="http://www.w3.org/1999/xlink" width="288" height="288" viewBox="0 0 700 700"><path d="m504 112h-308c-17.359 0-33.602 7.2812-45.359 18.48l-0.55859 0.55859c-11.762 11.762-19.039 28-19.039 45.922v207.2c0 17.922 7.2812 34.16 19.039 45.922l0.55859 0.55859c11.762 11.199 27.441 18.48 44.801 18.48h308c35.84 0 64.398-29.121 64.398-64.398v-207.2c1.1211-36.402-28-65.523-63.84-65.523zm-93.52 168 123.76-113.12c1.1211 2.8008 1.6797 6.1602 1.6797 9.5195v207.2c0 3.3594-0.55859 6.7188-1.6797 9.5195zm93.52-135.52c1.6797 0 3.9219 0 5.6016 0.55859l-133.84 122.64-25.199 22.961-11.762-11.199-147.28-134.96c1.6797-0.55859 3.3594-0.55859 5.6016-0.55859h306.88zm-338.24 248.64c-1.1211-2.8008-1.6797-6.1602-1.6797-9.5195v-207.2c0-3.3594 0.55859-6.7188 1.6797-9.5195l123.76 113.12zm30.238 22.398c-1.6797 0-3.3594 0-5.6016-0.55859l123.2-112.56 25.199 22.961c0.55859 0.55859 1.6797 1.1211 2.2383 1.6797 2.8008 1.6797 5.6016 2.2383 8.3984 2.2383 3.9219 0 7.8398-1.6797 11.199-4.4805l25.199-22.961 123.2 112.56c-1.6797 0.55859-3.3594 0.55859-5.6016 0.55859l-307.43 0.003907z" fill="#00b5d3" class="color000 svgShape"></path><use x="70" y="644" xlink:href="#x"></use><use x="90.547" y="644" xlink:href="#b"></use><use x="104.359" y="644" xlink:href="#a"></use><use x="123.348" y="644" xlink:href="#m"></use><use x="142.242" y="644" xlink:href="#c"></use><use x="155.625" y="644" xlink:href="#a"></use><use x="174.617" y="644" xlink:href="#l"></use><use x="204.406" y="644" xlink:href="#k"></use><use x="224.453" y="644" xlink:href="#j"></use><use x="252.453" y="644" xlink:href="#i"></use><use x="270.293" y="644" xlink:href="#w"></use><use x="290.227" y="644" xlink:href="#h"></use><use x="319.906" y="644" xlink:href="#v"></use><use x="339.008" y="644" xlink:href="#b"></use><use x="352.816" y="644" xlink:href="#u"></use><use x="372.055" y="644" xlink:href="#e"></use><use x="391.984" y="644" xlink:href="#t"></use><use x="421.777" y="644" xlink:href="#g"></use><use x="445.211" y="644" xlink:href="#f"></use><use x="465.145" y="644" xlink:href="#s"></use><use x="484.039" y="644" xlink:href="#e"></use><use x="70" y="672" xlink:href="#r"></use><use x="82.18" y="672" xlink:href="#b"></use><use x="95.992" y="672" xlink:href="#d"></use><use x="115.227" y="672" xlink:href="#q"></use><use x="154.148" y="672" xlink:href="#c"></use><use x="167.535" y="672" xlink:href="#f"></use><use x="187.469" y="672" xlink:href="#a"></use><use x="216.207" y="672" xlink:href="#g"></use><use x="239.641" y="672" xlink:href="#d"></use><use x="258.875" y="672" xlink:href="#h"></use><use x="278.813" y="672" xlink:href="#e"></use><use x="308.492" y="672" xlink:href="#p"></use><use x="329.016" y="672" xlink:href="#b"></use><use x="342.82" y="672" xlink:href="#d"></use><use x="362.059" y="672" xlink:href="#o"></use><use x="371.656" y="672" xlink:href="#a"></use><use x="390.648" y="672" xlink:href="#n"></use><use x="407.242" y="672" xlink:href="#c"></use></svg></g></svg>