<svg id="SvgjsSvg1001" width="288" height="288" xmlns="http://www.w3.org/2000/svg" version="1.1" xmlns:xlink="http://www.w3.org/1999/xlink" xmlns:svgjs="http://svgjs.com/svgjs"><defs id="SvgjsDefs1002"></defs><g id="SvgjsG1008"><svg xmlns="http://www.w3.org/2000/svg" xmlns:xlink="http://www.w3.org/1999/xlink" width="288" height="288" viewBox="0 0 700 700"><path fill-rule="evenodd" d="m350 107.68c66.414 0 100.15 80.809 52.988 127.94-29.332 29.309-76.664 29.32-106 0.011719-47.164-47.129-13.406-127.95 53.008-127.95m193.46 26.68c-27.988-83.137-111.52-133.94-194.7-134.36-83.285-0.41406-166.29 49.594-193.1 132.74-46.914 145.42 97.484 322.92 196.32 427.26 99.199-104.54 240.42-280.23 191.48-425.64zm-194.86-102.55c71.062 0.35938 141.51 43.793 164.71 112.71 41.473 123.2-81.289 280.71-161.31 368.76-85.266-93.891-205.07-249.86-166.07-370.75 22.219-68.895 92.105-111.07 162.68-110.71zm76.863 226.3c67.27-67.23 19.008-182.23-75.465-182.23s-142.74 114.99-75.488 182.25c41.754 41.699 109.21 41.699 150.95-0.011719z" fill="#00b5d3" class="color000 svgShape"></path><use x="70" y="728" xlink:href="#m"></use><use x="111.098" y="728" xlink:href="#c"></use><use x="138.715" y="728" xlink:href="#a"></use><use x="176.695" y="728" xlink:href="#b"></use><use x="214.484" y="728" xlink:href="#h"></use><use x="241.254" y="728" xlink:href="#a"></use><use x="279.234" y="728" xlink:href="#g"></use><use x="338.816" y="728" xlink:href="#f"></use><use x="378.902" y="728" xlink:href="#e"></use><use x="434.902" y="728" xlink:href="#d"></use><use x="480.867" y="728" xlink:href="#a"></use><use x="518.848" y="728" xlink:href="#l"></use><use x="557.32" y="728" xlink:href="#c"></use><use x="584.938" y="728" xlink:href="#k"></use><use x="625.023" y="728" xlink:href="#j"></use><use x="644.219" y="728" xlink:href="#b"></use><use x="682.008" y="728" xlink:href="#i"></use></svg></g></svg>