<?xml version="1.0" encoding="utf-8"?>
<svg version="1.1" id="Слой_1" xmlns="http://www.w3.org/2000/svg" xmlns:xlink="http://www.w3.org/1999/xlink" x="0px" y="0px" viewBox="0 0 566 481" style="enable-background:new 0 0 566 481;" xml:space="preserve">
<style type="text/css">.st0{fill:#FFFFFF;}</style>
<path class="st0" d="M44.143,102.931h478.643c24.38,0,44.143-19.764,44.143-44.143v0c0-24.38-19.764-44.143-44.143-44.143H44.143
	C19.764,14.645,0,34.408,0,58.788v0C0,83.167,19.764,102.931,44.143,102.931z"/>
<path class="st0" d="M44.143,282.057h478.643c24.38,0,44.143-19.764,44.143-44.143v0c0-24.38-19.764-44.143-44.143-44.143H44.143
	C19.764,193.771,0,213.534,0,237.914v0C0,262.294,19.764,282.057,44.143,282.057z"/>
<path class="st0" d="M44.143,461.183h478.643c24.38,0,44.143-19.764,44.143-44.143v0c0-24.38-19.764-44.143-44.143-44.143H44.143
	C19.764,372.897,0,392.661,0,417.04v0C0,441.42,19.764,461.183,44.143,461.183z"/>
</svg>
