<svg width="700" height="700" xmlns="http://www.w3.org/2000/svg" xmlns:xlink="http://www.w3.org/1999/xlink">
 <g>
  <title>background</title>
  <rect x="-1" y="-1" width="702" height="702" id="canvas_background" fill="none"/>
 </g>

 <g>
  <title>Layer 1</title>
  <g stroke="null" id="svg_1">
   <path stroke="null" d="m326.5995,175.39951l0,155.20006l-179.2,0l0,38.80088l179.2,0l0,155.20006l44.801,0l0,-155.20006l179.2,0l0,-38.80088l-179.2,0l0,-155.20006l-44.801,0z" id="svg_2"/>
   <use stroke="null" transform="matrix(1,0,0,0.8660717625847809,0.0000152587890625,72.8449368579657) " x="68.99948" y="684.01148" xlink:href="#u" id="svg_3"/>
   <use stroke="null" transform="matrix(1,0,0,0.8660717625847809,0.0000152587890625,72.8449368579657) " x="89.55026" y="684.01148" xlink:href="#c" id="svg_4"/>
   <use stroke="null" transform="matrix(1,0,0,0.8660717625847809,0.0000152587890625,72.8449368579657) " x="103.35885" y="684.01148" xlink:href="#a" id="svg_5"/>
   <use stroke="null" transform="matrix(1,0,0,0.8660717625847809,0.0000152587890625,72.8449368579657) " x="122.34713" y="684.01148" xlink:href="#i" id="svg_6"/>
   <use stroke="null" transform="matrix(1,0,0,0.8660717625847809,0.0000152587890625,72.8449368579657) " x="141.24166" y="684.01148" xlink:href="#b" id="svg_7"/>
   <use stroke="null" transform="matrix(1,0,0,0.8660717625847809,0.0000152587890625,72.8449368579657) " x="154.62838" y="684.01148" xlink:href="#a" id="svg_8"/>
   <use stroke="null" transform="matrix(1,0,0,0.8660717625847809,0.0000152587890625,72.8449368579657) " x="173.61666" y="684.01148" xlink:href="#h" id="svg_9"/>
   <use stroke="null" transform="matrix(1,0,0,0.8660717625847809,0.0000152587890625,72.8449368579657) " x="203.40963" y="684.01148" xlink:href="#f" id="svg_10"/>
   <use stroke="null" transform="matrix(1,0,0,0.8660717625847809,0.0000152587890625,72.8449368579657) " x="223.4526" y="684.01148" xlink:href="#e" id="svg_11"/>
   <use stroke="null" transform="matrix(1,0,0,0.8660717625847809,0.0000152587890625,72.8449368579657) " x="251.4526" y="684.01148" xlink:href="#g" id="svg_12"/>
   <use stroke="null" transform="matrix(1,0,0,0.8660717625847809,0.0000152587890625,72.8449368579657) " x="273.12057" y="684.01148" xlink:href="#e" id="svg_13"/>
   <use stroke="null" transform="matrix(1,0,0,0.8660717625847809,0.0000152587890625,72.8449368579657) " x="291.37448" y="684.01148" xlink:href="#f" id="svg_14"/>
   <use stroke="null" transform="matrix(1,0,0,0.8660717625847809,0.0000152587890625,72.8449368579657) " x="311.41354" y="684.01148" xlink:href="#t" id="svg_15"/>
   <use stroke="null" transform="matrix(1,0,0,0.8660717625847809,0.0000152587890625,72.8449368579657) " x="321.0151" y="684.01148" xlink:href="#s" id="svg_16"/>
   <use stroke="null" transform="matrix(1,0,0,0.8660717625847809,0.0000152587890625,72.8449368579657) " x="341.05416" y="684.01148" xlink:href="#a" id="svg_17"/>
   <use stroke="null" transform="matrix(1,0,0,0.8660717625847809,0.0000152587890625,72.8449368579657) " x="68.99948" y="712.01148" xlink:href="#r" id="svg_18"/>
   <use stroke="null" transform="matrix(1,0,0,0.8660717625847809,0.0000152587890625,72.8449368579657) " x="81.18307" y="712.01148" xlink:href="#c" id="svg_19"/>
   <use stroke="null" transform="matrix(1,0,0,0.8660717625847809,0.0000152587890625,72.8449368579657) " x="94.99166" y="712.01148" xlink:href="#d" id="svg_20"/>
   <use stroke="null" transform="matrix(1,0,0,0.8660717625847809,0.0000152587890625,72.8449368579657) " x="114.22604" y="712.01148" xlink:href="#q" id="svg_21"/>
   <use stroke="null" transform="matrix(1,0,0,0.8660717625847809,0.0000152587890625,72.8449368579657) " x="153.15182" y="712.01148" xlink:href="#b" id="svg_22"/>
   <use stroke="null" transform="matrix(1,0,0,0.8660717625847809,0.0000152587890625,72.8449368579657) " x="166.53463" y="712.01148" xlink:href="#p" id="svg_23"/>
   <use stroke="null" transform="matrix(1,0,0,0.8660717625847809,0.0000152587890625,72.8449368579657) " x="186.46823" y="712.01148" xlink:href="#a" id="svg_24"/>
   <use stroke="null" transform="matrix(1,0,0,0.8660717625847809,0.0000152587890625,72.8449368579657) " x="215.20651" y="712.01148" xlink:href="#o" id="svg_25"/>
   <use stroke="null" transform="matrix(1,0,0,0.8660717625847809,0.0000152587890625,72.8449368579657) " x="238.6401" y="712.01148" xlink:href="#d" id="svg_26"/>
   <use stroke="null" transform="matrix(1,0,0,0.8660717625847809,0.0000152587890625,72.8449368579657) " x="257.87838" y="712.01148" xlink:href="#n" id="svg_27"/>
   <use stroke="null" transform="matrix(1,0,0,0.8660717625847809,0.0000152587890625,72.8449368579657) " x="277.81198" y="712.01148" xlink:href="#m" id="svg_28"/>
   <use stroke="null" transform="matrix(1,0,0,0.8660717625847809,0.0000152587890625,72.8449368579657) " x="307.49166" y="712.01148" xlink:href="#l" id="svg_29"/>
   <use stroke="null" transform="matrix(1,0,0,0.8660717625847809,0.0000152587890625,72.8449368579657) " x="328.0151" y="712.01148" xlink:href="#c" id="svg_30"/>
   <use stroke="null" transform="matrix(1,0,0,0.8660717625847809,0.0000152587890625,72.8449368579657) " x="341.81979" y="712.01148" xlink:href="#d" id="svg_31"/>
   <use stroke="null" transform="matrix(1,0,0,0.8660717625847809,0.0000152587890625,72.8449368579657) " x="361.05807" y="712.01148" xlink:href="#k" id="svg_32"/>
   <use stroke="null" transform="matrix(1,0,0,0.8660717625847809,0.0000152587890625,72.8449368579657) " x="370.65573" y="712.01148" xlink:href="#a" id="svg_33"/>
   <use stroke="null" transform="matrix(1,0,0,0.8660717625847809,0.0000152587890625,72.8449368579657) " x="389.64791" y="712.01148" xlink:href="#j" id="svg_34"/>
   <use stroke="null" transform="matrix(1,0,0,0.8660717625847809,0.0000152587890625,72.8449368579657) " x="406.24166" y="712.01148" xlink:href="#b" id="svg_35"/>
  </g>
 </g>
</svg>