<svg id="SvgjsSvg1001" width="288" height="288" xmlns="http://www.w3.org/2000/svg" version="1.1" xmlns:xlink="http://www.w3.org/1999/xlink" xmlns:svgjs="http://svgjs.com/svgjs"><defs id="SvgjsDefs1002"></defs><g id="SvgjsG1008"><svg xmlns="http://www.w3.org/2000/svg" xmlns:xlink="http://www.w3.org/1999/xlink" width="288" height="288" viewBox="0 0 700 700"><path d="m350 532c138.88 0 252-113.12 252-252s-113.12-252-252-252-252 113.12-252 252 113.12 252 252 252zm0-469.28c119.84 0 217.28 97.441 217.28 217.28s-97.441 217.28-217.28 217.28-217.28-97.441-217.28-217.28 97.441-217.28 217.28-217.28z" fill="#00b5d3" class="color000 svgShape"></path><path d="m308 367.92c3.3594 2.8008 7.2812 3.9219 11.199 3.9219 4.4805 0 8.9609-1.6797 12.32-5.0391l147.28-148.96c6.7188-6.7188 6.7188-17.922 0-24.641s-17.922-6.7188-24.641 0l-136.08 137.76-58.238-49.281c-7.2812-6.1602-18.48-5.0391-24.641 2.2383-6.1602 7.2812-5.0391 18.48 2.2383 24.641z" fill="#00b5d3" class="color000 svgShape"></path><use x="70" y="644" xlink:href="#v"></use><use x="90.551" y="644" xlink:href="#b"></use><use x="104.359" y="644" xlink:href="#a"></use><use x="123.348" y="644" xlink:href="#i"></use><use x="142.242" y="644" xlink:href="#c"></use><use x="155.629" y="644" xlink:href="#a"></use><use x="174.617" y="644" xlink:href="#h"></use><use x="204.41" y="644" xlink:href="#g"></use><use x="224.453" y="644" xlink:href="#f"></use><use x="252.453" y="644" xlink:href="#e"></use><use x="280.316" y="644" xlink:href="#a"></use><use x="299.305" y="644" xlink:href="#b"></use><use x="313.113" y="644" xlink:href="#c"></use><use x="336.246" y="644" xlink:href="#u"></use><use x="359.227" y="644" xlink:href="#t"></use><use x="379.164" y="644" xlink:href="#s"></use><use x="388.758" y="644" xlink:href="#a"></use><use x="407.75" y="644" xlink:href="#b"></use><use x="70" y="672" xlink:href="#r"></use><use x="82.184" y="672" xlink:href="#b"></use><use x="95.992" y="672" xlink:href="#d"></use><use x="115.227" y="672" xlink:href="#q"></use><use x="154.152" y="672" xlink:href="#c"></use><use x="167.535" y="672" xlink:href="#p"></use><use x="187.469" y="672" xlink:href="#a"></use><use x="216.207" y="672" xlink:href="#o"></use><use x="239.641" y="672" xlink:href="#d"></use><use x="258.879" y="672" xlink:href="#n"></use><use x="278.813" y="672" xlink:href="#m"></use><use x="308.492" y="672" xlink:href="#l"></use><use x="329.016" y="672" xlink:href="#b"></use><use x="342.82" y="672" xlink:href="#d"></use><use x="362.059" y="672" xlink:href="#k"></use><use x="371.656" y="672" xlink:href="#a"></use><use x="390.648" y="672" xlink:href="#j"></use><use x="407.242" y="672" xlink:href="#c"></use></svg></g></svg>