<svg id="SvgjsSvg1001" width="288" height="288" xmlns="http://www.w3.org/2000/svg" version="1.1" xmlns:xlink="http://www.w3.org/1999/xlink" xmlns:svgjs="http://svgjs.com/svgjs"><defs id="SvgjsDefs1002"></defs><g id="SvgjsG1008"><svg xmlns="http://www.w3.org/2000/svg" xmlns:xlink="http://www.w3.org/1999/xlink" width="288" height="288" viewBox="0 0 700 700"><path d="m590.39 471.7-139.25-125.65c30.793-39.719 45.297-89.68 40.559-139.71-4.7422-50.035-28.367-96.387-66.07-129.62-37.703-33.23-86.652-50.848-136.88-49.266-50.234 1.582-97.98 22.242-133.52 57.781-35.539 35.539-56.199 83.281-57.781 133.52s16.035 99.184 49.27 136.89 79.582 61.328 129.62 66.062c50.035 4.7383 99.996-9.7656 139.71-40.559l125.65 139.25c6.3086 7.1133 15.27 11.309 24.773 11.594 9.5039 0.28516 18.699-3.3633 25.422-10.086 6.7227-6.7227 10.371-15.918 10.086-25.422-0.28516-9.5039-4.4766-18.465-11.59-24.773zm-458.08-246.41c0-43.227 17.172-84.68 47.734-115.25 30.566-30.562 72.02-47.734 115.25-47.734 43.223 0 84.68 17.172 115.24 47.734 30.566 30.566 47.738 72.02 47.738 115.25 0 43.223-17.172 84.68-47.738 115.24-30.562 30.566-72.02 47.738-115.24 47.738-43.211-0.050782-84.637-17.238-115.19-47.793-30.555-30.551-47.742-71.977-47.789-115.19z" fill="#00b5d3" class="color000 svgShape"></path><use x="70" y="644" xlink:href="#s"></use><use x="90.551" y="644" xlink:href="#c"></use><use x="104.359" y="644" xlink:href="#a"></use><use x="123.348" y="644" xlink:href="#k"></use><use x="142.242" y="644" xlink:href="#b"></use><use x="155.629" y="644" xlink:href="#a"></use><use x="174.617" y="644" xlink:href="#j"></use><use x="204.41" y="644" xlink:href="#i"></use><use x="224.453" y="644" xlink:href="#e"></use><use x="252.453" y="644" xlink:href="#h"></use><use x="270.293" y="644" xlink:href="#e"></use><use x="288.547" y="644" xlink:href="#g"></use><use x="308.477" y="644" xlink:href="#f"></use><use x="70" y="672" xlink:href="#r"></use><use x="82.184" y="672" xlink:href="#c"></use><use x="95.992" y="672" xlink:href="#d"></use><use x="115.227" y="672" xlink:href="#q"></use><use x="154.152" y="672" xlink:href="#b"></use><use x="167.535" y="672" xlink:href="#g"></use><use x="187.469" y="672" xlink:href="#a"></use><use x="216.207" y="672" xlink:href="#p"></use><use x="239.641" y="672" xlink:href="#d"></use><use x="258.879" y="672" xlink:href="#o"></use><use x="278.813" y="672" xlink:href="#f"></use><use x="308.492" y="672" xlink:href="#n"></use><use x="329.016" y="672" xlink:href="#c"></use><use x="342.82" y="672" xlink:href="#d"></use><use x="362.059" y="672" xlink:href="#m"></use><use x="371.656" y="672" xlink:href="#a"></use><use x="390.648" y="672" xlink:href="#l"></use><use x="407.242" y="672" xlink:href="#b"></use></svg></g></svg>