<svg width="258" height="258" xmlns="http://www.w3.org/2000/svg">
 <style type="text/css">.st1{fill:#5AA69C;}</style>
 <defs>
  <linearGradient y2="0.49353" x2="0.997413" y1="0.49353" x1="-0.003422" id="SVGID_1_">
   <stop stop-color="#00ACEC" offset="0"/>
   <stop stop-color="#9EC54C" offset="1"/>
  </linearGradient>
 </defs>
 <g>
  <title>background</title>
  <rect fill="#ffffff" id="canvas_background" height="260" width="260" y="-1" x="-1"/>
 </g>
 <g>
  <title>Layer 1</title>
  <path id="svg_1" fill="url(#SVGID_1_)" d="m164.5,92.3l-5.9,0l-5.9,0c-12.3,0 -29.6,0 -29.6,0l6,9c1.4,0 3.5,0 6,0c10.4,0 27.7,0 29.4,0c0.7,0 1.4,0 2.1,0.1c9,1 16,8.6 16,17.9c0,9.5 -7.5,17.4 -16.9,18c-0.4,0 -0.8,0 -1.2,0c-0.4,0 -10.9,0 -23.7,0l-24.1,-36l-6,-9l-36.3,54.1l12.1,0l6,-9l24.2,0l-6,-8.9l-12.4,0l12.1,-18.1l0.1,-0.1l18.1,27l6,9l17.3,0l6.9,0l5.7,0c14.5,-0.1 26.3,-11.7 26.8,-26c0,-0.3 0,-0.6 0,-0.9l0,-0.1c0.2,-14.9 -11.9,-27 -26.8,-27z"/>
  <path id="svg_2" d="m81.5,177.5l5.2,-12.3l3.3,0l-8.6,18.5l-8.6,-18.5l3.4,0l5.3,12.3z" class="st1"/>
  <polyline id="svg_3" points="67.5,182.60000610351562 70.79999542236328,182.60000610351562 62.20000076293945,164.1999969482422 53.70000076293945,182.60000610351562 57,182.60000610351562 59,178.10000610351562 63.79999923706055,178.10000610351562 62.70000076293945,175.60000610351562 59.89999771118164,175.60000610351562 62.20000076293945,170.10000610351562 " class="st1"/>
  <path id="svg_4" d="m97.1,165.2l10.7,0l0,2.6l-7.8,0l0,4.2l7.3,0l0,2.6l-7.3,0l0,5.5l7.8,0l0,2.6l-10.7,0l0,-17.5z" class="st1"/>
  <path id="svg_5" d="m116.4,165.2l3,0l0,14.8l7,0l0,2.7l-9.9,0l0,-17.5l-0.1,0z" class="st1"/>
  <path id="svg_6" d="m156,165.2l10.7,0l0,2.6l-7.8,0l0,4.2l7.3,0l0,2.6l-7.3,0l0,5.5l7.8,0l0,2.6l-10.7,0l0,-17.5z" class="st1"/>
  <path id="svg_7" d="m188,165.2l2.9,0l0,18.4l-12.8,-12.6l0,11.8l-2.9,0l0,-18.5l12.8,12.6l0,-11.7z" class="st1"/>
  <path id="svg_8" d="m198.1,167.9l0,-2.7l12.2,0l0,2.7l-4.6,0l0,14.8l-3,0l0,-14.8l-4.6,0z" class="st1"/>
  <path id="svg_9" d="m146.9,169.3c-0.8,-1.3 -1.8,-2.3 -3.2,-3.1c-1.4,-0.7 -2.9,-1.1 -4.7,-1.1l-5.7,0l0,2.8l3.7,0l2,0c1.2,0 2.2,0.2 3.1,0.7c0.9,0.5 1.6,1.1 2.2,2c0.5,0.9 0.8,2 0.8,3.3c0,1.3 -0.3,2.4 -0.8,3.3c-0.5,0.9 -1.2,1.6 -2.2,2c-0.9,0.5 -2,0.7 -3.1,0.7l-2.6,0l0,-10.4l-3,0l0,13.1l5.7,0c1.8,0 3.4,-0.4 4.7,-1.1c1.4,-0.7 2.4,-1.7 3.2,-3.1c0.8,-1.3 1.1,-2.9 1.1,-4.6c0,-1.7 -0.4,-3.2 -1.2,-4.5z" class="st1"/>
 </g>
</svg>